<mxfile host="app.diagrams.net" agent="Mozilla/5.0 (Windows NT 10.0; Win64; x64) AppleWebKit/537.36 (KHTML, like Gecko) Chrome/128.0.0.0 Safari/537.36" version="24.7.8" pages="2">
  <diagram name="DIAGRAMA DE SECUENCIAS" id="Z01BwV2VN06Zb8w7RAsX">
    <mxGraphModel dx="1313" dy="706" grid="1" gridSize="10" guides="1" tooltips="1" connect="1" arrows="1" fold="1" page="1" pageScale="1" pageWidth="827" pageHeight="1169" math="0" shadow="0">
      <root>
        <mxCell id="0" />
        <mxCell id="1" parent="0" />
        <mxCell id="yLn8BAQE9bNZ-dvjHdhl-1" value="&lt;span style=&quot;text-wrap: nowrap;&quot;&gt;TAREAS&lt;/span&gt;" style="shape=umlLifeline;perimeter=lifelinePerimeter;whiteSpace=wrap;html=1;container=1;dropTarget=0;collapsible=0;recursiveResize=0;outlineConnect=0;portConstraint=eastwest;newEdgeStyle={&quot;curved&quot;:0,&quot;rounded&quot;:0};" parent="1" vertex="1">
          <mxGeometry x="380" y="10" width="100" height="300" as="geometry" />
        </mxCell>
        <mxCell id="yLn8BAQE9bNZ-dvjHdhl-2" value="" style="html=1;points=[[0,0,0,0,5],[0,1,0,0,-5],[1,0,0,0,5],[1,1,0,0,-5]];perimeter=orthogonalPerimeter;outlineConnect=0;targetShapes=umlLifeline;portConstraint=eastwest;newEdgeStyle={&quot;curved&quot;:0,&quot;rounded&quot;:0};" parent="yLn8BAQE9bNZ-dvjHdhl-1" vertex="1">
          <mxGeometry x="45" y="60" width="10" height="220" as="geometry" />
        </mxCell>
        <mxCell id="yLn8BAQE9bNZ-dvjHdhl-3" value="&lt;span style=&quot;text-wrap: nowrap;&quot;&gt;REPORTES&lt;/span&gt;" style="shape=umlLifeline;perimeter=lifelinePerimeter;whiteSpace=wrap;html=1;container=1;dropTarget=0;collapsible=0;recursiveResize=0;outlineConnect=0;portConstraint=eastwest;newEdgeStyle={&quot;curved&quot;:0,&quot;rounded&quot;:0};" parent="1" vertex="1">
          <mxGeometry x="740" y="10" width="110" height="300" as="geometry" />
        </mxCell>
        <mxCell id="yLn8BAQE9bNZ-dvjHdhl-4" value="" style="html=1;points=[[0,0,0,0,5],[0,1,0,0,-5],[1,0,0,0,5],[1,1,0,0,-5]];perimeter=orthogonalPerimeter;outlineConnect=0;targetShapes=umlLifeline;portConstraint=eastwest;newEdgeStyle={&quot;curved&quot;:0,&quot;rounded&quot;:0};" parent="yLn8BAQE9bNZ-dvjHdhl-3" vertex="1">
          <mxGeometry x="50" y="110" width="10" height="90" as="geometry" />
        </mxCell>
        <mxCell id="yLn8BAQE9bNZ-dvjHdhl-5" value="&lt;span style=&quot;text-wrap: nowrap;&quot;&gt;&lt;i&gt;MIEMBROSDELEQUIPO&lt;/i&gt;&lt;/span&gt;" style="shape=umlLifeline;perimeter=lifelinePerimeter;whiteSpace=wrap;html=1;container=1;dropTarget=0;collapsible=0;recursiveResize=0;outlineConnect=0;portConstraint=eastwest;newEdgeStyle={&quot;curved&quot;:0,&quot;rounded&quot;:0};" parent="1" vertex="1">
          <mxGeometry x="220" y="10" width="110" height="300" as="geometry" />
        </mxCell>
        <mxCell id="yLn8BAQE9bNZ-dvjHdhl-6" value="" style="html=1;points=[[0,0,0,0,5],[0,1,0,0,-5],[1,0,0,0,5],[1,1,0,0,-5]];perimeter=orthogonalPerimeter;outlineConnect=0;targetShapes=umlLifeline;portConstraint=eastwest;newEdgeStyle={&quot;curved&quot;:0,&quot;rounded&quot;:0};" parent="yLn8BAQE9bNZ-dvjHdhl-5" vertex="1">
          <mxGeometry x="50" y="60" width="10" height="220" as="geometry" />
        </mxCell>
        <mxCell id="yLn8BAQE9bNZ-dvjHdhl-7" value="&lt;div style=&quot;text-align: left;&quot;&gt;&lt;span style=&quot;font-size: 12px; background-color: rgb(251, 251, 251);&quot;&gt;seleccionarTarea&lt;/span&gt;&lt;/div&gt;" style="html=1;verticalAlign=bottom;startArrow=oval;startFill=1;endArrow=block;startSize=8;curved=0;rounded=0;" parent="1" source="yLn8BAQE9bNZ-dvjHdhl-6" target="yLn8BAQE9bNZ-dvjHdhl-2" edge="1">
          <mxGeometry x="-0.0345" width="60" relative="1" as="geometry">
            <mxPoint x="280" y="110" as="sourcePoint" />
            <mxPoint x="579.5" y="110" as="targetPoint" />
            <mxPoint as="offset" />
            <Array as="points">
              <mxPoint x="400" y="90" />
            </Array>
          </mxGeometry>
        </mxCell>
        <mxCell id="yLn8BAQE9bNZ-dvjHdhl-8" value="&lt;div style=&quot;text-align: left;&quot;&gt;&lt;span style=&quot;font-size: 12px; background-color: rgb(251, 251, 251);&quot;&gt;tareas&lt;/span&gt;&lt;/div&gt;" style="html=1;verticalAlign=bottom;endArrow=block;curved=0;rounded=0;dashed=1;entryX=0.333;entryY=0.623;entryDx=0;entryDy=0;entryPerimeter=0;" parent="1" edge="1">
          <mxGeometry x="0.0019" relative="1" as="geometry">
            <mxPoint x="426.17" y="270" as="sourcePoint" />
            <mxPoint x="270.00000000000006" y="270" as="targetPoint" />
            <mxPoint as="offset" />
          </mxGeometry>
        </mxCell>
        <mxCell id="yLn8BAQE9bNZ-dvjHdhl-11" value="&lt;div style=&quot;text-align: left;&quot;&gt;&lt;span style=&quot;font-size: 12px; background-color: rgb(251, 251, 251);&quot;&gt;agregarDetalles&lt;/span&gt;&lt;/div&gt;" style="html=1;verticalAlign=bottom;startArrow=oval;startFill=1;endArrow=block;startSize=8;curved=0;rounded=0;" parent="1" edge="1">
          <mxGeometry x="-0.0345" width="60" relative="1" as="geometry">
            <mxPoint x="430" y="254.58" as="sourcePoint" />
            <mxPoint x="1113" y="254.58" as="targetPoint" />
            <mxPoint as="offset" />
          </mxGeometry>
        </mxCell>
        <mxCell id="yLn8BAQE9bNZ-dvjHdhl-16" value="enviarReportes" style="text;html=1;align=center;verticalAlign=middle;resizable=0;points=[];autosize=1;strokeColor=none;fillColor=none;" parent="1" vertex="1">
          <mxGeometry x="1203" y="240" width="100" height="30" as="geometry" />
        </mxCell>
        <mxCell id="yLn8BAQE9bNZ-dvjHdhl-17" value="&lt;span style=&quot;text-wrap: nowrap;&quot;&gt;TABLERO&lt;/span&gt;" style="shape=umlLifeline;perimeter=lifelinePerimeter;whiteSpace=wrap;html=1;container=1;dropTarget=0;collapsible=0;recursiveResize=0;outlineConnect=0;portConstraint=eastwest;newEdgeStyle={&quot;curved&quot;:0,&quot;rounded&quot;:0};" parent="1" vertex="1">
          <mxGeometry x="903" y="10" width="110" height="300" as="geometry" />
        </mxCell>
        <mxCell id="yLn8BAQE9bNZ-dvjHdhl-18" value="" style="html=1;points=[[0,0,0,0,5],[0,1,0,0,-5],[1,0,0,0,5],[1,1,0,0,-5]];perimeter=orthogonalPerimeter;outlineConnect=0;targetShapes=umlLifeline;portConstraint=eastwest;newEdgeStyle={&quot;curved&quot;:0,&quot;rounded&quot;:0};" parent="yLn8BAQE9bNZ-dvjHdhl-17" vertex="1">
          <mxGeometry x="50" y="140" width="10" height="50" as="geometry" />
        </mxCell>
        <mxCell id="yLn8BAQE9bNZ-dvjHdhl-19" value="&lt;span style=&quot;font-size: 12px; text-align: left; background-color: rgb(251, 251, 251); text-decoration-line: underline;&quot;&gt;verTablero&lt;/span&gt;" style="html=1;verticalAlign=bottom;startArrow=oval;startFill=1;endArrow=block;startSize=8;curved=0;rounded=0;" parent="1" edge="1">
          <mxGeometry x="-0.0355" width="60" relative="1" as="geometry">
            <mxPoint x="800" y="159.58" as="sourcePoint" />
            <mxPoint x="953" y="159.58" as="targetPoint" />
            <mxPoint as="offset" />
          </mxGeometry>
        </mxCell>
        <mxCell id="yLn8BAQE9bNZ-dvjHdhl-20" value="&lt;div style=&quot;text-align: left;&quot;&gt;&lt;span style=&quot;font-size: 12px; background-color: rgb(251, 251, 251);&quot;&gt;revisiones&lt;/span&gt;&lt;/div&gt;" style="html=1;verticalAlign=bottom;endArrow=block;curved=0;rounded=0;dashed=1;entryX=0.333;entryY=0.623;entryDx=0;entryDy=0;entryPerimeter=0;" parent="1" edge="1">
          <mxGeometry x="0.0019" relative="1" as="geometry">
            <mxPoint x="953" y="190.29" as="sourcePoint" />
            <mxPoint x="793" y="190.00000000000003" as="targetPoint" />
            <mxPoint as="offset" />
          </mxGeometry>
        </mxCell>
        <mxCell id="QC1WbzcmHW6lIZ6rsz0u-12" value="&lt;span style=&quot;text-wrap: nowrap;&quot;&gt;SUBTAREAS&lt;/span&gt;" style="shape=umlLifeline;perimeter=lifelinePerimeter;whiteSpace=wrap;html=1;container=1;dropTarget=0;collapsible=0;recursiveResize=0;outlineConnect=0;portConstraint=eastwest;newEdgeStyle={&quot;curved&quot;:0,&quot;rounded&quot;:0};" parent="1" vertex="1">
          <mxGeometry x="560" y="10" width="110" height="300" as="geometry" />
        </mxCell>
        <mxCell id="QC1WbzcmHW6lIZ6rsz0u-13" value="" style="html=1;points=[[0,0,0,0,5],[0,1,0,0,-5],[1,0,0,0,5],[1,1,0,0,-5]];perimeter=orthogonalPerimeter;outlineConnect=0;targetShapes=umlLifeline;portConstraint=eastwest;newEdgeStyle={&quot;curved&quot;:0,&quot;rounded&quot;:0};" parent="QC1WbzcmHW6lIZ6rsz0u-12" vertex="1">
          <mxGeometry x="50" y="102.5" width="10" height="107.5" as="geometry" />
        </mxCell>
        <mxCell id="QC1WbzcmHW6lIZ6rsz0u-14" value="&lt;span style=&quot;font-size: 12px; text-align: left; background-color: rgb(251, 251, 251);&quot;&gt;selecionarSubtarea&lt;/span&gt;" style="html=1;verticalAlign=bottom;startArrow=oval;startFill=1;endArrow=block;startSize=8;curved=0;rounded=0;" parent="1" target="QC1WbzcmHW6lIZ6rsz0u-13" edge="1">
          <mxGeometry x="-0.0345" width="60" relative="1" as="geometry">
            <mxPoint x="430" y="130" as="sourcePoint" />
            <mxPoint x="575" y="130" as="targetPoint" />
            <mxPoint as="offset" />
            <Array as="points">
              <mxPoint x="550" y="130" />
            </Array>
          </mxGeometry>
        </mxCell>
        <mxCell id="QC1WbzcmHW6lIZ6rsz0u-15" value="&lt;div style=&quot;text-align: left;&quot;&gt;&lt;span style=&quot;font-size: 12px; background-color: rgb(251, 251, 251);&quot;&gt;revisiones&lt;/span&gt;&lt;/div&gt;" style="html=1;verticalAlign=bottom;endArrow=block;curved=0;rounded=0;dashed=1;entryX=0.333;entryY=0.623;entryDx=0;entryDy=0;entryPerimeter=0;" parent="1" edge="1">
          <mxGeometry x="0.0019" relative="1" as="geometry">
            <mxPoint x="610" y="210" as="sourcePoint" />
            <mxPoint x="430" y="210.00000000000003" as="targetPoint" />
            <mxPoint as="offset" />
          </mxGeometry>
        </mxCell>
        <mxCell id="QC1WbzcmHW6lIZ6rsz0u-17" value="&lt;span style=&quot;font-size: 12px; text-align: left; background-color: rgb(251, 251, 251); text-decoration-line: underline;&quot;&gt;realizaReportes&lt;/span&gt;" style="html=1;verticalAlign=bottom;startArrow=oval;startFill=1;endArrow=block;startSize=8;curved=0;rounded=0;" parent="1" edge="1">
          <mxGeometry x="-0.0355" width="60" relative="1" as="geometry">
            <mxPoint x="620" y="150" as="sourcePoint" />
            <mxPoint x="790" y="150" as="targetPoint" />
            <mxPoint as="offset" />
          </mxGeometry>
        </mxCell>
        <mxCell id="QC1WbzcmHW6lIZ6rsz0u-18" value="&lt;div style=&quot;text-align: left;&quot;&gt;&lt;span style=&quot;font-size: 12px; background-color: rgb(251, 251, 251);&quot;&gt;reportes&lt;/span&gt;&lt;/div&gt;" style="html=1;verticalAlign=bottom;endArrow=block;curved=0;rounded=0;dashed=1;entryX=0.333;entryY=0.623;entryDx=0;entryDy=0;entryPerimeter=0;" parent="1" edge="1">
          <mxGeometry x="0.0019" relative="1" as="geometry">
            <mxPoint x="790" y="200" as="sourcePoint" />
            <mxPoint x="610" y="200.00000000000003" as="targetPoint" />
            <mxPoint as="offset" />
          </mxGeometry>
        </mxCell>
        <mxCell id="yLn8BAQE9bNZ-dvjHdhl-13" value="" style="html=1;points=[[0,0,0,0,5],[0,1,0,0,-5],[1,0,0,0,5],[1,1,0,0,-5]];perimeter=orthogonalPerimeter;outlineConnect=0;targetShapes=umlLifeline;portConstraint=eastwest;newEdgeStyle={&quot;curved&quot;:0,&quot;rounded&quot;:0};" parent="1" vertex="1">
          <mxGeometry x="1120" y="240" width="10" height="50" as="geometry" />
        </mxCell>
        <mxCell id="yLn8BAQE9bNZ-dvjHdhl-14" value="" style="html=1;points=[[0,0,0,0,5],[0,1,0,0,-5],[1,0,0,0,5],[1,1,0,0,-5]];perimeter=orthogonalPerimeter;outlineConnect=0;targetShapes=umlLifeline;portConstraint=eastwest;newEdgeStyle={&quot;curved&quot;:0,&quot;rounded&quot;:0};" parent="1" vertex="1">
          <mxGeometry x="1130" y="250" width="10" height="30" as="geometry" />
        </mxCell>
        <mxCell id="yLn8BAQE9bNZ-dvjHdhl-15" value="" style="edgeStyle=orthogonalEdgeStyle;rounded=0;orthogonalLoop=1;jettySize=auto;html=1;curved=0;entryX=1;entryY=1;entryDx=0;entryDy=-5;entryPerimeter=0;" parent="1" source="yLn8BAQE9bNZ-dvjHdhl-14" target="yLn8BAQE9bNZ-dvjHdhl-14" edge="1">
          <mxGeometry relative="1" as="geometry">
            <Array as="points">
              <mxPoint x="1210" y="251" />
              <mxPoint x="1210" y="261" />
              <mxPoint x="1160" y="261" />
            </Array>
          </mxGeometry>
        </mxCell>
        <mxCell id="hlVY3wno-FIihSuy9oEb-1" value="&lt;div style=&quot;text-align: left;&quot;&gt;&lt;span style=&quot;font-size: 12px; background-color: rgb(251, 251, 251);&quot;&gt;revisiones&lt;/span&gt;&lt;/div&gt;" style="html=1;verticalAlign=bottom;endArrow=block;curved=0;rounded=0;dashed=1;entryX=0.333;entryY=0.623;entryDx=0;entryDy=0;entryPerimeter=0;" edge="1" parent="1">
          <mxGeometry x="0.0019" relative="1" as="geometry">
            <mxPoint x="420" y="160" as="sourcePoint" />
            <mxPoint x="280" y="159.50000000000003" as="targetPoint" />
            <mxPoint as="offset" />
          </mxGeometry>
        </mxCell>
      </root>
    </mxGraphModel>
  </diagram>
  <diagram name="DIAGRAMA DE ACTIVIDADES" id="sXyG7vyvP-O8Qc1pa3mD">
    <mxGraphModel dx="1506" dy="1256" grid="1" gridSize="10" guides="1" tooltips="1" connect="1" arrows="1" fold="1" page="1" pageScale="1" pageWidth="827" pageHeight="1169" math="0" shadow="0">
      <root>
        <mxCell id="0" />
        <mxCell id="1" parent="0" />
        <mxCell id="ypXY6X7P4j2D2hKnz1wN-1" value="Miembros del Equipo" style="swimlane;horizontal=0;whiteSpace=wrap;html=1;" parent="1" vertex="1">
          <mxGeometry x="930" y="119" width="1820" height="270" as="geometry" />
        </mxCell>
        <mxCell id="ypXY6X7P4j2D2hKnz1wN-2" value="" style="verticalLabelPosition=bottom;verticalAlign=top;html=1;shape=mxgraph.flowchart.on-page_reference;fillColor=#000000" parent="ypXY6X7P4j2D2hKnz1wN-1" vertex="1">
          <mxGeometry x="50" y="50" width="40" height="40" as="geometry" />
        </mxCell>
        <mxCell id="ypXY6X7P4j2D2hKnz1wN-3" value="Iniciar sesión en el sistema SSAP" style="rounded=1;whiteSpace=wrap;html=1;" parent="ypXY6X7P4j2D2hKnz1wN-1" vertex="1">
          <mxGeometry x="140" y="40" width="120" height="60" as="geometry" />
        </mxCell>
        <mxCell id="ypXY6X7P4j2D2hKnz1wN-4" value="" style="edgeStyle=orthogonalEdgeStyle;rounded=0;orthogonalLoop=1;jettySize=auto;html=1;" parent="ypXY6X7P4j2D2hKnz1wN-1" source="ypXY6X7P4j2D2hKnz1wN-2" target="ypXY6X7P4j2D2hKnz1wN-3" edge="1">
          <mxGeometry relative="1" as="geometry" />
        </mxCell>
        <mxCell id="ypXY6X7P4j2D2hKnz1wN-11" value="Ingresar a la interfaz del proyecto" style="rounded=1;whiteSpace=wrap;html=1;" parent="ypXY6X7P4j2D2hKnz1wN-1" vertex="1">
          <mxGeometry x="311" y="40" width="120" height="60" as="geometry" />
        </mxCell>
        <mxCell id="ypXY6X7P4j2D2hKnz1wN-13" value="" style="edgeStyle=orthogonalEdgeStyle;rounded=0;orthogonalLoop=1;jettySize=auto;html=1;" parent="ypXY6X7P4j2D2hKnz1wN-1" source="ypXY6X7P4j2D2hKnz1wN-3" target="ypXY6X7P4j2D2hKnz1wN-11" edge="1">
          <mxGeometry relative="1" as="geometry" />
        </mxCell>
        <mxCell id="mua0RKnqiL1xJ5518-fi-2" style="edgeStyle=orthogonalEdgeStyle;rounded=0;orthogonalLoop=1;jettySize=auto;html=1;exitX=1;exitY=0.5;exitDx=0;exitDy=0;entryX=0;entryY=0.5;entryDx=0;entryDy=0;" edge="1" parent="ypXY6X7P4j2D2hKnz1wN-1" source="ypXY6X7P4j2D2hKnz1wN-27" target="pn0utWSapftSOq-LWLbk-2">
          <mxGeometry relative="1" as="geometry" />
        </mxCell>
        <mxCell id="ypXY6X7P4j2D2hKnz1wN-27" value="Ingresar a tareas asignadas a revisar" style="rounded=1;whiteSpace=wrap;html=1;" parent="ypXY6X7P4j2D2hKnz1wN-1" vertex="1">
          <mxGeometry x="500" y="40" width="120" height="60" as="geometry" />
        </mxCell>
        <mxCell id="ypXY6X7P4j2D2hKnz1wN-12" value="" style="edgeStyle=orthogonalEdgeStyle;rounded=0;orthogonalLoop=1;jettySize=auto;html=1;" parent="ypXY6X7P4j2D2hKnz1wN-1" source="ypXY6X7P4j2D2hKnz1wN-11" target="ypXY6X7P4j2D2hKnz1wN-27" edge="1">
          <mxGeometry relative="1" as="geometry">
            <mxPoint x="500" y="70" as="targetPoint" />
          </mxGeometry>
        </mxCell>
        <mxCell id="mua0RKnqiL1xJ5518-fi-3" style="edgeStyle=orthogonalEdgeStyle;rounded=0;orthogonalLoop=1;jettySize=auto;html=1;exitX=1;exitY=0.5;exitDx=0;exitDy=0;entryX=0;entryY=0.5;entryDx=0;entryDy=0;" edge="1" parent="ypXY6X7P4j2D2hKnz1wN-1" source="pn0utWSapftSOq-LWLbk-2" target="YUMrdN_SjUIaaJNe5Grx-2">
          <mxGeometry relative="1" as="geometry" />
        </mxCell>
        <mxCell id="pn0utWSapftSOq-LWLbk-2" value="Seleccionar Tarea a Gestionar" style="rounded=1;whiteSpace=wrap;html=1;" parent="ypXY6X7P4j2D2hKnz1wN-1" vertex="1">
          <mxGeometry x="650" y="40" width="120" height="60" as="geometry" />
        </mxCell>
        <mxCell id="pn0utWSapftSOq-LWLbk-6" style="edgeStyle=orthogonalEdgeStyle;rounded=0;orthogonalLoop=1;jettySize=auto;html=1;exitX=1;exitY=0.5;exitDx=0;exitDy=0;entryX=0;entryY=0.5;entryDx=0;entryDy=0;" parent="ypXY6X7P4j2D2hKnz1wN-1" source="pn0utWSapftSOq-LWLbk-3" target="pn0utWSapftSOq-LWLbk-5" edge="1">
          <mxGeometry relative="1" as="geometry" />
        </mxCell>
        <mxCell id="pn0utWSapftSOq-LWLbk-3" value="Analizar avances de la Tarea y subtarea" style="rounded=1;whiteSpace=wrap;html=1;" parent="ypXY6X7P4j2D2hKnz1wN-1" vertex="1">
          <mxGeometry x="1000" y="40" width="120" height="60" as="geometry" />
        </mxCell>
        <mxCell id="mua0RKnqiL1xJ5518-fi-8" style="edgeStyle=orthogonalEdgeStyle;rounded=0;orthogonalLoop=1;jettySize=auto;html=1;exitX=0.5;exitY=1;exitDx=0;exitDy=0;entryX=0.5;entryY=0;entryDx=0;entryDy=0;" edge="1" parent="ypXY6X7P4j2D2hKnz1wN-1" source="pn0utWSapftSOq-LWLbk-5" target="mua0RKnqiL1xJ5518-fi-5">
          <mxGeometry relative="1" as="geometry" />
        </mxCell>
        <mxCell id="pn0utWSapftSOq-LWLbk-5" value="Seleccionar Añadir nuevo reporte" style="rounded=1;whiteSpace=wrap;html=1;" parent="ypXY6X7P4j2D2hKnz1wN-1" vertex="1">
          <mxGeometry x="1190" y="40" width="120" height="60" as="geometry" />
        </mxCell>
        <mxCell id="mua0RKnqiL1xJ5518-fi-4" style="edgeStyle=orthogonalEdgeStyle;rounded=0;orthogonalLoop=1;jettySize=auto;html=1;exitX=1;exitY=0.5;exitDx=0;exitDy=0;entryX=0;entryY=0.5;entryDx=0;entryDy=0;" edge="1" parent="ypXY6X7P4j2D2hKnz1wN-1" source="YUMrdN_SjUIaaJNe5Grx-2" target="pn0utWSapftSOq-LWLbk-3">
          <mxGeometry relative="1" as="geometry" />
        </mxCell>
        <mxCell id="YUMrdN_SjUIaaJNe5Grx-2" value="Seleccionar subtarea a Gestionar" style="rounded=1;whiteSpace=wrap;html=1;" parent="ypXY6X7P4j2D2hKnz1wN-1" vertex="1">
          <mxGeometry x="810" y="40" width="120" height="60" as="geometry" />
        </mxCell>
        <mxCell id="mua0RKnqiL1xJ5518-fi-9" style="edgeStyle=orthogonalEdgeStyle;rounded=0;orthogonalLoop=1;jettySize=auto;html=1;exitX=1;exitY=0.5;exitDx=0;exitDy=0;entryX=0;entryY=0.5;entryDx=0;entryDy=0;" edge="1" parent="ypXY6X7P4j2D2hKnz1wN-1" source="mua0RKnqiL1xJ5518-fi-5" target="ypXY6X7P4j2D2hKnz1wN-23">
          <mxGeometry relative="1" as="geometry" />
        </mxCell>
        <mxCell id="mua0RKnqiL1xJ5518-fi-5" value="Añadir información del reporte" style="rounded=1;whiteSpace=wrap;html=1;" vertex="1" parent="ypXY6X7P4j2D2hKnz1wN-1">
          <mxGeometry x="1190" y="161" width="120" height="60" as="geometry" />
        </mxCell>
        <mxCell id="ypXY6X7P4j2D2hKnz1wN-23" value="Confirmar y Guardar Avances Encontrados" style="whiteSpace=wrap;html=1;" parent="ypXY6X7P4j2D2hKnz1wN-1" vertex="1">
          <mxGeometry x="1390" y="161" width="120" height="60" as="geometry" />
        </mxCell>
        <mxCell id="YUMrdN_SjUIaaJNe5Grx-1" value="SSAP&amp;nbsp;" style="swimlane;horizontal=0;whiteSpace=wrap;html=1;startSize=23;" parent="1" vertex="1">
          <mxGeometry x="930" y="390" width="1820" height="160" as="geometry" />
        </mxCell>
        <mxCell id="YUMrdN_SjUIaaJNe5Grx-8" value="" style="ellipse;html=1;shape=endState;fillColor=#000000;strokeColor=#ff0000;" parent="YUMrdN_SjUIaaJNe5Grx-1" vertex="1">
          <mxGeometry x="1752" y="50" width="40" height="40" as="geometry" />
        </mxCell>
        <mxCell id="YUMrdN_SjUIaaJNe5Grx-12" style="edgeStyle=orthogonalEdgeStyle;rounded=0;orthogonalLoop=1;jettySize=auto;html=1;" parent="YUMrdN_SjUIaaJNe5Grx-1" source="YUMrdN_SjUIaaJNe5Grx-13" target="YUMrdN_SjUIaaJNe5Grx-8" edge="1">
          <mxGeometry relative="1" as="geometry" />
        </mxCell>
        <mxCell id="YUMrdN_SjUIaaJNe5Grx-13" value="Guarda en base de datos" style="whiteSpace=wrap;html=1;" parent="YUMrdN_SjUIaaJNe5Grx-1" vertex="1">
          <mxGeometry x="1562" y="40" width="120" height="60" as="geometry" />
        </mxCell>
        <mxCell id="mua0RKnqiL1xJ5518-fi-10" style="edgeStyle=orthogonalEdgeStyle;rounded=0;orthogonalLoop=1;jettySize=auto;html=1;exitX=1;exitY=0.5;exitDx=0;exitDy=0;entryX=0.5;entryY=0;entryDx=0;entryDy=0;" edge="1" parent="1" source="ypXY6X7P4j2D2hKnz1wN-23" target="YUMrdN_SjUIaaJNe5Grx-13">
          <mxGeometry relative="1" as="geometry" />
        </mxCell>
      </root>
    </mxGraphModel>
  </diagram>
</mxfile>
